<?xml version="1.0" standalone="no"?>
<!DOCTYPE svg PUBLIC "-//W3C//DTD SVG 20010904//EN"
 "http://www.w3.org/TR/2001/REC-SVG-20010904/DTD/svg10.dtd">
<svg version="1.0" xmlns="http://www.w3.org/2000/svg"
 width="280.000000pt" height="331.000000pt" viewBox="0 0 280.000000 331.000000"
 preserveAspectRatio="xMidYMid meet">

<g transform="translate(0.000000,331.000000) scale(0.100000,-0.100000)"
fill="#000000" stroke="none">
<path d="M538 3271 c-46 -41 -97 -126 -119 -198 -21 -72 -32 -51 -25 45 7 100
-2 94 -32 -23 -34 -134 -35 -146 -10 -196 l23 -44 -22 -21 c-25 -25 -63 -141
-62 -188 0 -28 2 -25 18 22 10 29 21 56 25 59 5 6 11 -108 11 -234 0 -62 17
-56 34 12 6 25 14 45 17 45 3 0 25 -43 50 -95 24 -52 46 -95 49 -95 2 0 2 20
-2 45 -3 25 -2 45 3 45 17 0 112 -104 138 -150 l26 -45 0 38 c0 42 13 47 48
18 17 -15 22 -30 23 -73 0 -45 2 -49 10 -29 5 14 7 37 4 51 -7 33 29 84 55 77
9 -2 25 2 35 9 10 8 30 14 44 14 13 0 22 3 18 6 -5 6 -116 -11 -157 -23 -12
-3 -12 -6 -1 -12 9 -6 10 -11 2 -15 -12 -8 -51 15 -98 58 -32 28 -46 55 -21
40 12 -8 7 4 -25 49 -20 29 -16 50 5 29 7 -7 18 -12 24 -12 21 0 64 46 64 66
-1 16 -4 15 -21 -8 -25 -33 -47 -35 -77 -8 -30 28 -28 30 15 18 34 -9 39 -8
60 16 19 23 25 25 50 15 52 -21 123 -37 123 -29 0 5 -12 16 -27 25 -28 17
-100 112 -91 120 3 3 18 0 34 -5 21 -8 30 -18 32 -36 2 -31 9 -44 23 -44 6 0
8 4 4 10 -8 12 5 60 16 60 5 0 8 -3 8 -7 -3 -21 3 -33 21 -43 26 -14 60 3 60
30 0 11 5 20 10 20 19 0 10 -47 -13 -68 -13 -12 -36 -22 -53 -22 -28 -1 -28
-1 -10 -15 29 -22 44 -19 77 14 21 22 29 39 29 65 0 32 3 36 26 36 21 0 29 -9
51 -56 34 -74 38 -118 19 -193 -16 -63 -45 -110 -115 -183 -39 -42 -59 -46
-96 -22 -34 22 -32 52 3 61 l27 7 -30 6 c-35 7 -45 -3 -45 -47 0 -24 4 -31 14
-27 8 3 19 -3 25 -14 16 -30 64 -23 104 16 34 33 47 33 47 0 0 -10 5 -18 11
-18 6 0 8 9 4 20 -7 23 13 28 21 5 4 -9 27 -17 66 -21 47 -5 62 -11 65 -25 5
-18 23 -27 23 -11 -1 20 -23 34 -95 57 -44 15 -83 29 -87 33 -3 4 11 36 33 71
21 35 42 82 47 105 l8 41 8 -32 c10 -45 26 -41 27 7 1 22 3 45 4 50 1 6 3 15
4 20 0 6 6 10 11 10 9 0 15 -12 36 -69 10 -29 14 -2 5 42 -4 26 -7 47 -5 47 7
0 54 -100 54 -115 0 -8 5 -15 10 -15 12 0 12 78 1 138 -5 23 -7 42 -5 42 2 0
19 -24 39 -52 37 -56 45 -48 20 22 -8 24 -14 44 -12 46 1 2 20 -1 42 -6 22 -5
55 -10 73 -10 35 0 39 -6 18 -29 -38 -42 -156 -217 -156 -230 0 -9 7 -2 16 14
8 17 22 37 31 45 14 13 15 13 8 -5 -34 -86 -48 -140 -52 -203 -3 -50 -1 -72 6
-67 6 3 11 34 11 68 0 55 20 131 55 211 6 14 5 17 -3 12 -21 -13 -13 4 22 47
41 51 106 145 106 152 0 4 -5 3 -10 0 -12 -7 -83 41 -99 67 -10 16 -7 18 26
19 21 0 46 4 56 7 14 6 9 12 -29 30 -25 13 -44 25 -41 28 3 3 28 6 56 6 28 -1
51 1 51 3 0 3 -17 12 -37 22 l-38 16 58 10 c31 5 57 13 57 18 0 5 -7 9 -16 9
-28 0 -154 100 -154 123 0 17 86 47 138 47 37 0 51 3 46 11 -10 17 -130 69
-161 70 -16 0 -37 4 -48 9 -17 6 -12 10 28 20 26 7 50 17 54 23 4 7 -1 8 -13
3 -35 -14 -111 -19 -118 -8 -7 12 120 79 173 92 28 6 14 8 -64 9 -55 1 -140 9
-190 18 -55 10 -165 18 -281 20 l-192 4 -46 -32 c-26 -17 -49 -29 -52 -26 -2
2 0 16 5 31 10 23 8 26 -13 26 -13 0 -43 -18 -68 -39z m325 -248 c-7 -2 -19
-2 -25 0 -7 3 -2 5 12 5 14 0 19 -2 13 -5z m20 -20 c-7 -2 -19 -2 -25 0 -7 3
-2 5 12 5 14 0 19 -2 13 -5z m-48 -94 c5 -6 4 -9 -4 -9 -10 0 -11 -3 -2 -14 9
-11 8 -15 -4 -20 -9 -3 -13 -10 -10 -16 7 -11 -53 -14 -79 -4 -13 5 -11 11 14
37 16 16 27 35 23 40 -7 12 48 0 62 -14z m-88 -133 c2 -2 -7 -6 -21 -10 -32
-8 -107 21 -87 33 11 7 96 -11 108 -23z m-156 -43 l24 -26 -27 19 c-15 10 -28
22 -28 27 0 12 5 8 31 -20z m21 -113 c16 -7 26 -15 24 -17 -2 -3 -13 0 -24 6
-11 6 -27 9 -34 6 -9 -4 -19 4 -26 20 -17 37 -15 41 11 19 12 -11 34 -26 49
-34z m521 -53 c-4 -6 -10 -2 -14 9 -12 31 -9 40 6 20 8 -10 11 -24 8 -29z"/>
<path d="M1496 2613 c-6 -14 -5 -15 5 -6 7 7 10 15 7 18 -3 3 -9 -2 -12 -12z"/>
<path d="M1391 2419 c-17 -34 -29 -64 -27 -67 3 -2 18 24 35 59 17 34 29 64
27 67 -3 2 -19 -24 -35 -59z"/>
<path d="M688 2454 c-3 -12 -3 -26 1 -31 9 -14 61 -25 61 -14 0 5 -10 11 -22
13 -14 2 -24 12 -28 28 -6 24 -6 24 -12 4z"/>
<path d="M1491 2409 c-1 -31 -4 -72 -7 -90 -4 -19 -4 -31 0 -28 13 12 25 118
16 146 -7 23 -8 19 -9 -28z"/>
<path d="M1436 2418 c-8 -30 -6 -138 2 -160 4 -10 8 27 8 82 1 55 0 100 -1
100 -2 0 -5 -10 -9 -22z"/>
<path d="M1694 2355 c3 -11 7 -67 11 -125 3 -57 8 -107 12 -110 11 -11 -3 216
-15 235 l-13 20 5 -20z"/>
<path d="M1562 2220 c0 -14 2 -19 5 -12 2 6 2 18 0 25 -3 6 -5 1 -5 -13z"/>
<path d="M791 2183 c0 -21 7 -54 14 -73 12 -32 14 -33 14 -9 1 14 6 30 12 36
9 9 6 10 -11 6 -21 -6 -22 -4 -15 36 4 27 3 41 -4 41 -6 0 -11 -17 -10 -37z"/>
<path d="M1035 2198 c11 -40 59 -101 100 -130 43 -30 55 -33 55 -18 0 6 -8 10
-17 10 -24 0 -110 95 -118 130 -4 17 -11 30 -16 30 -6 0 -7 -10 -4 -22z"/>
<path d="M1360 2217 c0 -5 23 -62 45 -112 7 -16 16 -40 20 -53 4 -13 45 -61
91 -106 80 -79 106 -98 65 -45 -10 13 -26 40 -35 59 -9 19 -37 58 -62 85 -25
28 -59 76 -75 107 -24 48 -49 81 -49 65z"/>
<path d="M2099 2129 c-1 -51 -1 -52 -10 -21 -5 17 -12 32 -14 32 -11 0 9 -58
37 -105 16 -27 26 -41 22 -30 -4 11 -10 53 -14 93 -8 88 -20 105 -21 31z"/>
<path d="M1000 2162 c0 -5 10 -17 21 -28 22 -19 22 -19 10 3 -12 24 -31 39
-31 25z"/>
<path d="M564 2143 c-3 -10 -10 -28 -15 -40 -5 -15 -5 -23 1 -23 6 0 10 -5 10
-11 0 -6 -6 -9 -12 -6 -14 4 -48 -44 -48 -68 0 -9 -5 -24 -12 -35 -10 -15 -9
-24 2 -45 8 -15 16 -22 18 -17 1 5 13 8 25 5 20 -5 19 -3 -6 20 -31 28 -31 52
2 81 15 14 23 15 44 5 14 -6 30 -21 35 -33 8 -15 11 -17 11 -5 1 19 -25 44
-56 53 -29 9 -29 19 1 36 21 11 28 10 54 -9 17 -12 38 -41 48 -66 9 -25 23
-45 30 -45 7 0 16 -5 20 -12 5 -7 2 -9 -8 -5 -11 4 -18 -1 -21 -15 -4 -14 -11
-19 -23 -14 -9 3 -22 2 -29 -4 -10 -8 -22 -1 -49 27 -20 21 -36 44 -36 51 0 6
-4 12 -10 12 -19 0 -10 -30 20 -64 l31 -34 -32 -16 c-39 -20 -37 -20 -42 2 -3
11 -5 8 -6 -9 -1 -17 -16 -40 -45 -66 -29 -27 -48 -54 -54 -79 -15 -56 -32
-166 -32 -204 0 -42 31 -107 68 -146 16 -16 60 -81 98 -144 38 -63 86 -131
107 -151 38 -38 188 -144 242 -172 17 -8 39 -24 50 -34 11 -10 44 -36 73 -57
32 -23 54 -48 58 -64 12 -48 33 -80 56 -85 13 -4 39 -22 57 -41 l34 -35 -15
-55 c-10 -36 -12 -60 -6 -71 7 -12 5 -20 -9 -30 -15 -11 -16 -18 -7 -43 11
-27 9 -32 -23 -58 -19 -16 -42 -37 -51 -47 -9 -9 -26 -17 -37 -17 -17 0 -16 3
10 25 40 33 21 32 -22 -1 -25 -19 -41 -24 -59 -20 -14 4 -22 11 -19 15 3 5 -6
4 -20 -2 -27 -13 -33 -27 -11 -27 7 0 21 -10 30 -22 12 -16 16 -18 12 -5 -4
13 1 17 23 17 16 0 31 -7 35 -15 3 -8 10 -15 17 -15 6 0 9 7 5 15 -4 11 1 15
18 15 13 0 26 -7 30 -15 3 -8 13 -15 23 -15 13 0 14 3 5 12 -8 8 -1 16 28 31
39 18 51 39 30 52 -5 3 -10 -1 -10 -10 0 -21 -61 -48 -75 -33 -7 7 -6 12 3 15
8 3 28 17 45 32 18 15 52 33 76 40 24 7 56 21 70 32 24 17 29 18 68 4 23 -8
60 -18 83 -21 l40 -7 -40 -43 c-22 -24 -40 -50 -40 -57 0 -18 21 -37 40 -37
12 1 12 2 -2 11 -29 16 -21 42 25 87 32 31 51 42 74 42 45 0 49 -15 18 -60
-15 -22 -25 -46 -21 -55 3 -8 0 -16 -7 -16 -40 -4 56 -13 106 -11 45 3 57 6
44 13 -22 13 -22 34 1 67 10 15 22 35 25 45 5 13 18 17 52 17 l46 0 -16 -30
c-15 -29 -35 -40 -35 -20 0 6 -9 10 -20 10 -11 0 -20 -4 -20 -10 0 -5 7 -10
16 -10 25 0 10 -25 -17 -28 -42 -6 -48 -25 -7 -20 29 3 38 0 41 -14 3 -10 10
-18 15 -18 6 0 8 9 5 20 -7 27 14 50 44 50 30 0 26 -24 -5 -28 -30 -5 -28 -22
3 -22 14 0 25 -4 25 -10 0 -5 6 -10 14 -10 9 0 12 7 9 19 -3 10 1 29 7 41 11
20 14 21 27 7 16 -15 9 -42 -8 -32 -10 7 -13 -8 -3 -18 12 -11 44 13 44 33 0
11 -9 25 -19 32 -15 9 -17 16 -10 30 16 30 -5 20 -24 -11 -15 -26 -19 -28 -42
-18 -14 7 -25 17 -25 23 0 16 27 37 39 30 5 -3 17 -3 27 1 14 5 11 9 -17 19
-63 23 -5 14 66 -10 66 -23 70 -25 67 -52 l-2 -29 15 25 c8 14 14 32 15 41 0
9 17 37 37 63 l37 47 -1 144 0 143 46 10 46 10 -41 1 c-59 1 -109 -10 -92 -20
20 -13 -8 -12 -33 1 -16 9 -19 22 -19 93 0 45 -7 152 -14 238 -12 132 -18 164
-40 208 -22 43 -26 59 -20 101 4 29 2 55 -3 62 -6 7 -13 25 -17 41 -3 15 -19
39 -35 52 -30 27 -42 59 -62 165 -11 59 -18 70 -71 123 -45 45 -57 63 -53 78
7 22 -2 75 -12 66 -10 -11 -71 43 -83 74 -10 22 -15 27 -21 17 -7 -10 -9 -10
-9 0 0 17 -41 72 -53 72 -5 0 -4 -6 2 -14 6 -7 20 -40 31 -72 27 -82 48 -132
60 -139 5 -3 10 -13 10 -21 0 -16 62 -116 68 -110 2 2 -10 28 -27 58 -44 77
-38 82 9 9 22 -34 40 -66 40 -71 0 -6 5 -10 10 -10 15 0 12 -26 -5 -40 -11 -9
-28 -5 -87 24 -87 43 -75 36 -215 130 -62 41 -135 87 -162 101 -50 25 -61 38
-41 50 6 3 10 11 10 17 0 6 -11 1 -25 -12 l-24 -23 -36 22 c-48 28 -64 27 -36
-3 25 -27 22 -31 -29 -41 -33 -6 -36 -4 -65 42 -16 26 -33 56 -37 66 -4 9 -13
17 -19 17 -8 0 -6 -7 3 -22 22 -34 52 -91 54 -105 7 -39 -92 57 -101 98 -11
51 -24 41 -19 -13 4 -29 15 -65 25 -80 24 -34 14 -63 -23 -64 -22 -1 -28 4
-34 30 -4 17 -7 35 -6 39 3 10 -30 67 -38 67 -3 0 -3 -38 -1 -85 l3 -85 -46 0
c-39 0 -46 3 -46 19 0 11 4 22 9 25 18 12 20 101 3 153 -9 29 -20 53 -24 53
-10 0 -10 -1 7 -50 8 -24 12 -52 9 -63 -5 -16 -9 -12 -25 22 -14 32 -28 46
-64 61 -25 11 -53 16 -62 13 -12 -5 -15 -2 -10 10 3 9 4 17 1 17 -2 0 -7 -8
-10 -17z m80 -38 c42 -18 81 -88 70 -130 -9 -35 -18 -31 -39 18 -22 49 -61 86
-92 87 -25 0 -29 10 -11 28 16 16 28 15 72 -3z m573 -121 c-3 -3 -22 -6 -42
-6 -26 0 -43 -7 -61 -26 -13 -15 -24 -32 -24 -39 0 -13 -4 -15 -55 -18 -16 -1
-39 -5 -50 -10 -17 -7 -16 -5 4 13 26 24 22 28 -12 11 -16 -7 -14 -3 7 15 37
31 138 65 195 66 24 0 42 -3 38 -6z m-495 -111 c-13 -3 -26 -12 -29 -21 -12
-32 -48 -74 -76 -88 -34 -18 -64 -5 -73 31 -3 14 -10 22 -15 20 -4 -3 -6 -12
-3 -19 3 -9 -4 -15 -20 -18 -14 -3 -26 -1 -26 3 0 5 9 9 20 9 12 0 17 5 14 14
-6 14 22 30 37 20 5 -3 6 -11 2 -17 -3 -7 2 -5 13 4 10 10 26 19 34 22 8 2 2
3 -15 1 l-30 -3 30 16 c38 21 80 31 125 31 23 -1 27 -2 12 -5z m998 -1524 c0
-6 -5 -19 -10 -30 -9 -15 -15 -17 -30 -9 -24 13 -50 13 -50 -1 0 -5 4 -8 8 -5
4 2 14 0 22 -5 13 -8 13 -10 0 -19 -8 -5 -23 -10 -32 -10 -10 0 -18 -5 -18
-11 0 -7 12 -10 30 -7 21 3 30 0 30 -9 0 -10 -11 -13 -42 -11 -55 4 -59 23
-18 83 28 41 35 45 70 45 22 0 40 -5 40 -11z"/>
<path d="M635 1850 c3 -5 15 -10 26 -10 10 0 19 5 19 10 0 6 -12 10 -26 10
-14 0 -23 -4 -19 -10z"/>
<path d="M1212 2130 c0 -14 2 -19 5 -12 2 6 2 18 0 25 -3 6 -5 1 -5 -13z"/>
<path d="M1591 2104 c0 -11 3 -14 6 -6 3 7 2 16 -1 19 -3 4 -6 -2 -5 -13z"/>
<path d="M2280 2051 c0 -6 4 -13 10 -16 6 -3 7 1 4 9 -7 18 -14 21 -14 7z"/>
<path d="M1746 2025 c-3 -9 -6 -22 -5 -28 0 -7 5 -1 10 12 5 13 8 26 5 28 -2
2 -6 -3 -10 -12z"/>
<path d="M2137 1924 c3 -31 13 -84 23 -118 54 -183 74 -238 107 -306 21 -44
38 -94 39 -120 2 -25 8 -144 14 -265 6 -121 13 -248 16 -283 4 -42 1 -68 -7
-78 -15 -19 -40 -18 -33 1 4 10 0 15 -10 15 -12 0 -15 -6 -12 -22 3 -13 9
-108 13 -213 4 -104 9 -168 11 -141 3 45 8 54 58 103 30 29 54 58 54 63 0 6
13 10 30 10 22 0 40 12 77 51 79 84 84 96 94 226 5 65 12 154 14 198 l4 80 -9
-73 c-11 -95 -20 -103 -20 -19 0 37 -4 67 -10 67 -5 0 -7 -8 -4 -17 5 -15 4
-15 -4 -3 -6 8 -8 18 -6 22 3 4 -7 24 -21 43 -15 19 -33 54 -39 77 -13 43 -46
75 -150 148 -20 14 -38 34 -42 45 -12 40 -29 75 -36 75 -12 0 -9 22 7 53 26
51 28 116 5 177 -11 30 -18 44 -15 30 22 -95 22 -131 0 -178 l-22 -47 -11 35
c-6 19 -14 52 -18 72 -3 21 -9 36 -13 34 -4 -3 -15 26 -25 62 -10 37 -24 84
-32 105 -8 20 -14 62 -14 92 0 30 -4 55 -9 55 -6 0 -8 -24 -4 -56z"/>
<path d="M620 1944 c0 -13 18 -39 24 -34 2 3 -2 14 -10 24 -8 11 -14 16 -14
10z"/>
<path d="M2216 1905 c4 -22 10 -56 14 -75 l8 -35 0 40 c0 22 -6 56 -13 75
l-14 35 5 -40z"/>
<path d="M2430 1816 c0 -2 8 -10 18 -17 15 -13 16 -12 3 4 -13 16 -21 21 -21
13z"/>
<path d="M2233 1735 c0 -33 2 -45 4 -27 2 18 2 45 0 60 -2 15 -4 0 -4 -33z"/>
<path d="M2501 1705 c1 -19 18 -51 18 -35 0 8 -4 22 -9 30 -5 8 -9 11 -9 5z"/>
<path d="M1952 1575 c0 -16 2 -22 5 -12 2 9 2 23 0 30 -3 6 -5 -1 -5 -18z"/>
<path d="M1952 1500 c0 -19 2 -27 5 -17 2 9 2 25 0 35 -3 9 -5 1 -5 -18z"/>
<path d="M2571 1414 c0 -11 3 -14 6 -6 3 7 2 16 -1 19 -3 4 -6 -2 -5 -13z"/>
<path d="M2592 1280 c0 -14 2 -19 5 -12 2 6 2 18 0 25 -3 6 -5 1 -5 -13z"/>
<path d="M2612 1170 c0 -14 2 -19 5 -12 2 6 2 18 0 25 -3 6 -5 1 -5 -13z"/>
<path d="M1115 330 c-3 -5 -1 -10 4 -10 6 0 11 5 11 10 0 6 -2 10 -4 10 -3 0
-8 -4 -11 -10z"/>
<path d="M1527 299 c4 -15 0 -19 -18 -20 -13 -1 -27 -1 -31 0 -5 0 -8 -3 -8
-9 0 -14 54 -12 68 2 16 16 15 35 -2 41 -10 4 -12 0 -9 -14z"/>
<path d="M1328 304 c-5 -4 -8 -16 -8 -28 0 -14 3 -17 11 -9 6 6 9 19 7 28 -1
9 -6 13 -10 9z"/>
<path d="M1957 254 c-19 -22 -24 -34 -15 -34 7 0 21 8 30 19 8 10 22 21 29 23
12 4 4 29 -9 27 -4 0 -20 -16 -35 -35z"/>
<path d="M2302 255 c0 -16 2 -22 5 -12 2 9 2 23 0 30 -3 6 -5 -1 -5 -18z"/>
<path d="M2101 230 c-27 -23 -38 -44 -52 -97 -9 -37 -22 -67 -28 -66 -6 2 -11
-3 -11 -11 0 -8 -10 -22 -22 -31 -21 -15 -22 -16 -3 -13 11 1 26 -1 33 -5 7
-5 12 -3 12 6 0 8 7 28 15 43 8 16 15 39 15 51 0 33 17 71 43 96 19 18 43 58
34 57 -1 -1 -17 -14 -36 -30z"/>
<path d="M1245 235 c-31 -10 -36 -14 -23 -20 9 -4 33 -2 52 5 19 6 47 8 62 4
28 -6 28 -6 9 9 -24 19 -46 20 -100 2z"/>
<path d="M940 226 c0 -2 7 -7 16 -10 8 -3 12 -2 9 4 -6 10 -25 14 -25 6z"/>
<path d="M2185 177 c-40 -65 -64 -112 -65 -126 0 -8 -7 -23 -17 -33 -15 -17
-15 -18 3 -18 14 0 24 14 38 57 10 32 30 74 43 95 14 20 23 42 21 47 -1 6 -12
-4 -23 -22z"/>
<path d="M2265 100 c-27 -50 -56 -90 -62 -90 -7 0 -13 2 -13 4 0 13 43 96 55
106 8 7 15 17 15 23 0 20 -43 -29 -62 -70 -10 -23 -23 -45 -28 -48 -19 -12
-10 -25 18 -25 40 0 135 117 130 160 -3 26 -8 19 -53 -60z"/>
</g>
</svg>
